<svg width="18" height="19" viewBox="0 0 18 19" fill="none" xmlns="http://www.w3.org/2000/svg">
<path d="M16.23 12.76L13.69 12.47C13.08 12.4 12.48 12.61 12.05 13.04L10.21 14.88C7.37998 13.44 5.05998 11.13 3.61998 8.29001L5.46998 6.44001C5.89998 6.01001 6.10998 5.41001 6.03998 4.80001L5.74998 2.28001C5.62998 1.27001 4.77998 0.51001 3.75998 0.51001H2.02998C0.89998 0.51001 -0.0400204 1.45001 0.0299796 2.58001C0.55998 11.12 7.38998 17.94 15.92 18.47C17.05 18.54 17.99 17.6 17.99 16.47V14.74C18 13.73 17.24 12.88 16.23 12.76Z" fill="#555351"/>
</svg>
